<svg xmlns="http://www.w3.org/2000/svg" xmlns:xlink="http://www.w3.org/1999/xlink" viewBox="0 0 640 580" preserveAspectRatio="xMidYMid slice">
  <path d="M503.74 73.36l2.05.16 2.04.22 2.03.27 2.03.33 2.01.38 2.01.44 1.99.49 1.99.54 1.97.61 1.97.65 1.96.71 1.95.77 1.94.82 1.93.87 1.92.93 1.91.99 1.9 1.04 1.89 1.1 1.89 1.15 1.87 1.2 1.86 1.26 1.86 1.32 1.85 1.36 1.83 1.43 1.83 1.48 1.82 1.53 1.8 1.59 1.8 1.65 1.79 1.7 1.78 1.75 1.77 1.81 1.77 1.86 1.75 1.92 1.74 1.98 1.74 2.02 26.16 18.69-2.17.2-2.12.22-2.08.23-2.02.26-1.98.28-1.92.29-1.88.32-1.83.34-1.78.35-1.73.38-1.68.39-1.63.42-1.58.43-1.54.46-1.48.47-1.44.5-1.38.51-1.34.54-1.29.55-1.24.57-1.19.6-1.14.61-1.09.64-1.05.65-.99.67-.94.7-.9.71-.85.73-.8.76-.74.77-.7.79-.65.81-.61.84-.55.85-.5.87-.46.89-.4.91-.36.94-.31.95-.25.97-.35 1.49-.32 1.54-.31 1.59-.29 1.63-.28 1.68-.27 1.73-.25 1.77-.24 1.82-.23 1.87-.22 1.92-.21 1.96-.21 2.02-.19 2.06-.18 2.11-.18 2.16-.18 2.21-.17 2.26-.16 2.31-.16 2.36-.16 2.41-.16 2.46-.15 2.51-.16 2.57-.16 2.61-.15 2.67-.16 2.72-.17 2.77-.16 2.82-.17 2.88-.18 2.93-.18 2.98-.19 3.04-.2 3.09-.21 3.15-.21 3.2-.23 3.25-.23 3.31-.25 3.37-.26 3.42-.28 3.48-.38 3.51-.57 3.53-.77 3.54-.95 3.54-1.12 3.55-1.29 3.56-1.45 3.55-1.6 3.55-1.75 3.55-1.88 3.53-2.02 3.52-2.15 3.5-2.26 3.48-2.36 3.47-2.48 3.43-2.56 3.41-2.66 3.38-2.74 3.34-2.81 3.3-2.88 3.26-2.93 3.22-2.99 3.18-3.04 3.12-3.07 3.07-3.11 3.01-3.12 2.96-3.15 2.89-3.15 2.82-3.16 2.76-3.15 2.69-3.13 2.61-3.12 2.54-3.09 2.45-3.06 2.37-3.02 2.29-2.97 2.19-2.91 2.1-2.85 2.01-2.78 1.9-2.71 1.81-2.59 1.71-2.45 1.63-2.32 1.55-2.18 1.47-2.06 1.4-1.93 1.32-1.81 1.26-1.69 1.19-1.58 1.12-1.47 1.06-1.36 1-1.26.94-1.16.89-1.07.83-.98.78-.88.73-.81.69-.73.64-.65.6-.57.57-.51.52-.45.49-.38.46-.33.43-.27.4-.23.38-.18.35-.13.34-.1.31-.07.3-.03.29-.01.28.02.27.04.26.05.26.06.25.07.26.08.26.07.27.08.28.08.19.17.22.25.24.34.26.41.28.5.31.58.32.66.34.74.37.82.39.91.4.98.43 1.07.45 1.15.47 1.24.49 1.31.52 1.4.53 1.47.56 1.56.57 1.65.6 1.72.62 1.8.64 1.89.66 1.97.68 2.05.7 2.13.72 2.21.75 2.3.76 2.38.79 2.46.81 2.54.82 2.62.85 2.7.87 2.79.89 2.87.92 2.95.93 3.03.95 3.11.98 3.2 1 3.27 1.01 1.07.37 1.07.36 1.05.35 1.05.34 1.04.32 1.03.32 1.02.3 1.01.3 1.01.28.99.28.99.26.98.25.97.25.97.23.96.22.94.21.94.2.93.19.93.18.91.17.91.16.9.14.89.14.88.13.88.11.86.11.86.09.85.09.84.07.84.07.82.05.82.04.81.04.8.02.79.01h.79l.77-.01.77-.02.76-.03.75-.04.79-.05.85-.06.93-.06 1-.07 1.08-.07 1.14-.08 1.22-.08 1.29-.09 1.36-.1 1.44-.1 1.51-.11 1.58-.12 1.65-.12 1.73-.12 1.79-.13 1.87-.14 1.95-.14 2.01-.15 2.09-.16 2.16-.16 2.23-.16 2.31-.18 2.37-.17 2.45-.19 2.53-.19 2.59-.19 2.67-.2 2.74-.21 2.81-.22 2.88-.21 2.96-.23 3.03-.23 3.1-.24 3.18-.24 3.24-.25 3.32-.25 3.39-.26 3.47-.27 3.53-.27 3.61-.28-4.98 8.85-.17.3-.17.29-.18.28-.18.29-.19.28-.19.27-.2.27-.2.27-.21.27-.21.26-.21.26-.22.25-.23.25-.23.24-.23.24-.23.24-.24.23-.25.23-.25.22-.25.22-.25.22-.26.21-.27.2-.26.2-.27.2-.28.19-.27.19-.29.18-.28.18-.29.17-.29.17-.29.16-.3.16-.3.15-.3.15-.3.14-.31.14-.31.13-.32.13-.31.12-1.19.43-1.22.43-1.25.42-1.27.42-1.3.41-1.34.41-1.36.4-1.39.39-1.42.39-1.45.39-1.48.37-1.51.38-1.54.36-1.57.36-1.59.36-1.63.35-1.65.34-1.69.34-1.71.33-1.74.33-1.77.32-1.8.32-1.83.31-1.86.31-1.89.3-1.92.29-1.94.29-1.98.28-2 .28-2.04.27-2.06.26-2.09.27-2.12.25-2.15.25-2.18.24-2.21.24-2.24.23-2.27.23-2.3.22-2.32.22-3.93.39-4.06.47-4.19.55-4.31.63-4.43.69-4.52.75-4.61.82-4.7.87-4.76.91-4.84.97-4.88 1-4.94 1.04-4.97 1.08-4.99 1.1-5.02 1.13-5.02 1.14-5.03 1.16-5.01 1.17-5 1.17-4.97 1.18-4.93 1.17-4.88 1.16-4.83 1.15-4.77 1.13-4.69 1.12-4.61 1.08-4.52 1.06-4.42 1.02-4.31.98-4.18.94-4.06.89-3.93.84-3.77.78-3.62.72-3.46.65-3.28.59-3.09.5-2.91.43-2.7.35-2.49.25-1.64.16-1.74.18-1.85.22-1.95.25-2.05.27-2.15.31-2.26.34-2.36.37-2.46.39-2.57.43-2.67.46-2.77.49-2.87.52-2.98.55-3.08.58-3.18.61-3.28.64-3.39.68-3.49.7-3.6.73-3.69.76-3.8.8-3.9.82-4.01.85-4.11.89-4.21.91-4.31.95-4.41.97-4.52 1.01-4.62 1.04-4.73 1.06-4.83 1.1-4.93 1.13-5.03 1.15-5.13 1.19-5.24 1.22-5.34 1.25-5.45 1.28-5.54 1.31-5.65 1.34.01-.79.04-.78.06-.78.09-.77.11-.77.14-.76.16-.75.19-.74.2-.73.23-.73.26-.72.27-.7.3-.7.31-.68.34-.68.36-.66.38-.65.4-.64.42-.62.44-.62.46-.59.47-.59.5-.56.51-.55.53-.54.54-.52.57-.5.58-.49.59-.47.62-.45.62-.43.65-.41.65-.39.68-.37.68-.36.7-.33.71-.31.73-.28.74-.27.75-.24 5.57-1.69 5.44-1.64 5.31-1.61 5.19-1.57 5.07-1.52 4.93-1.48 4.81-1.44 4.68-1.39 4.56-1.36 4.43-1.31 4.31-1.28 4.17-1.23 4.05-1.18 3.93-1.15 3.8-1.11 3.67-1.06 3.55-1.02 3.41-.98 3.3-.94 3.16-.9 3.04-.85 2.92-.81 2.78-.78 2.67-.73 2.53-.68 2.41-.65 2.28-.6 2.15-.57 2.03-.52 1.91-.48 1.77-.43 1.65-.4 1.52-.35 1.4-.32 1.27-.27 1.14-.23 1.02-.18.89-.15.77-.1.64-.06.94-.09.87-.11.81-.14.73-.16.67-.19.6-.22.55-.24.48-.26.42-.29.37-.3.31-.34.25-.35.21-.37.15-.39.11-.41.06-.44.02-.44-.03-.47-.06-.49-.1-.5-.15-.51-.17-.53-.21-.55-.24-.56-.27-.57-.3-.59-.32-.59-.35-.61-.37-.62-.38-.63-.41-.64-.43-.65-.43-.66-.46-.66-.46-.68-.47-.68-.48-.68-.49-.69-.48-.7-.49-.69-.48-.69-.45-.65-.43-.61-.4-.59-.38-.56-.36-.53-.34-.51-.33-.48-.31-.46-.29-.44-.28-.43-.26-.4-.26-.4-.25-.38-.23-.37-.24-.36-.22-.36-.23-.35-.22-.35-.22-.34-.22-.35-.22-.35-.23-.35-.23-.36-.23-.37-.25-.37-.25-.39-.26-.4-.27-.42-.29-.43-.3-.45-.32-.47-.34-.49-.35-.52-.37-.55-.4-.57-.41-.6-.45-.63-.46-.67-.5-.7-.5-.71-.49-.69-.47-.68-.47-.67-.45-.65-.44-.64-.43-.63-.42-.61-.41-.6-.4-.58-.39-.58-.38-.56-.38-.55-.36-.54-.37-.53-.35-.51-.35-.51-.34-.49-.34-.49-.34-.48-.33-.46-.32-.46-.33-.45-.32-.44-.32-.43-.31-.42-.32-.42-.32-.41-.31-.4-.32-.39-.32-.39-.32-.38-.32-.38-.32-.37-.33-.37-.33-.36-.33-.35-.34-.35-.34-.35-.35-.34-.39-.33-.47-.3-.56-.27-.63-.25-.71-.23-.78-.2-.86-.17-.93-.15-.99-.12-1.07-.1-1.12-.08-1.19-.06-1.25-.03-1.31-.02-1.37.01-1.42.03-1.48.06-1.53.07-1.57.09-1.63.11-1.67.13-1.71.15-1.76.16-1.79.19-1.83.2-1.87.22-1.9.23-1.94.26-1.96.26-2 .29-2.01.3-2.05.31-2.06.32-2.09.35-2.11.35-2.12.37-2.13.38-2.15.39-2.16.4-2.17.42-2.21.47-2.27.57-2.33.66-2.39.76-2.44.85-2.49.93-2.55 1.02-2.59 1.09-2.63 1.18-2.68 1.24-2.71 1.32-2.75 1.39-2.78 1.45-2.81 1.51-2.83 1.57-2.86 1.63-2.87 1.68-2.9 1.73-2.91 1.78-2.92 1.82-2.93 1.85-2.94 1.9-2.94 1.93-2.94 1.96-2.93 1.99-2.93 2.02-2.93 2.04-2.91 2.05-2.89 2.07-2.88 2.09-2.86 2.09-2.84 2.1-2.81 2.11-2.78 2.1-2.75 2.1-2.71 2.1-2.68 2.09-2.63 2.07-2.6 2.06-2.55 2.05-1.7 1.37-1.77 1.41-1.82 1.45-1.87 1.48-1.93 1.53-1.99 1.56-2.04 1.6-2.09 1.63-2.15 1.68-2.2 1.71-2.26 1.74-2.31 1.79-2.37 1.82-2.43 1.86-2.47 1.9-2.54 1.93-2.59 1.97-2.64 2.01-2.7 2.05-2.75 2.08-2.81 2.13-2.86 2.15-2.92 2.2-2.97 2.23-3.03 2.27-3.08 2.31-3.14 2.35-3.19 2.38-3.25 2.42-3.3 2.46-3.36 2.5-3.41 2.53-3.46 2.57-3.52 2.61-3.58 2.64-3.63 2.68-3.69 2.72-3.74 2.76-3.8 2.79-3.85 2.84 4.41-5.29 4.36-5.22 4.3-5.14 4.24-5.06 4.19-5 4.13-4.91 4.07-4.84 4.02-4.77 3.96-4.69 3.91-4.62 3.85-4.54 3.8-4.47 3.73-4.39 3.69-4.32 3.62-4.24 3.57-4.17 3.52-4.09 3.45-4.02 3.41-3.94 3.34-3.87 3.29-3.8 3.23-3.71 3.18-3.65 3.12-3.57 3.07-3.49 3.01-3.43 2.95-3.34 2.9-3.27 2.84-3.2 2.78-3.12 2.73-3.05 2.68-2.97 2.61-2.9 2.56-2.82 2.51-2.75 2.45-2.67 2.39-2.6 2.34-2.52 2.28-2.45 2.22-2.37 3.26-3.48 3.21-3.42 3.16-3.37 3.1-3.32 3.05-3.28 3-3.23 2.96-3.19 2.92-3.14 2.87-3.11 2.84-3.07 2.81-3.04 2.77-3 2.74-2.98 2.71-2.94 2.69-2.92 2.67-2.9 2.64-2.88 2.63-2.86 2.61-2.84 2.6-2.83 2.59-2.81 2.58-2.81 2.57-2.8 2.58-2.79 2.57-2.79 2.57-2.78 2.58-2.79 2.58-2.79 2.59-2.8 2.61-2.8 2.62-2.82 2.63-2.82 2.65-2.84 2.68-2.86 2.7-2.87 2.72-2.89 2.76-2.92 2.78-2.94 2.82-2.97 2.86-3 2.9-3.01 2.95-2.98 3-2.97 3.04-2.94 3.09-2.93 3.11-2.9 3.15-2.88 3.18-2.85 3.19-2.83 3.21-2.8 3.23-2.77 3.23-2.74 3.24-2.72 3.24-2.68 3.24-2.65 3.22-2.61 3.22-2.58 3.2-2.55 3.17-2.51 3.15-2.47 3.12-2.44 3.09-2.39 3.05-2.35 3-2.32 2.96-2.26 2.91-2.23 2.85-2.18 2.8-2.13 2.72-2.09 2.66-2.04 2.59-1.99 2.51-1.94 2.43-1.89 2.34-1.84 2.26-1.78 2.15-1.73 2.06-1.68 1.96-1.61 1.85-1.56 1.74-1.5 1.66-1.48 1.62-1.47 1.57-1.47 1.53-1.48 1.48-1.47 1.45-1.48 1.4-1.47 1.37-1.48 1.32-1.48 1.29-1.49 1.25-1.48 1.22-1.49 1.18-1.5 1.15-1.49 1.11-1.5 1.08-1.5 1.05-1.51 1.02-1.51.99-1.52.96-1.52.94-1.53.9-1.53.88-1.54.85-1.55.83-1.55.81-1.55.78-1.57.76-1.57.74-1.58.72-1.59.7-1.59.68-1.6.67-1.61.64-1.62.64-1.63.61-1.64.6-1.64.59-1.66.58-1.67.57-1.68.58-1.69.61-1.73.66-1.76.69-1.79.73-1.8.78-1.82.82-1.83.86-1.85.92-1.85.96-1.85 1.01-1.85 1.06-1.85 1.11-1.84 1.17-1.83 1.23-1.81 1.28-1.79 1.34-1.78 1.41-1.74 1.46-1.72 1.53-1.68 1.59-1.64 1.66-1.61 1.73-1.56 1.79-1.51 1.87-1.47 1.94-1.41 2.01-1.34 2.09-1.29 2.16-1.22 2.24-1.16 2.33-1.08 2.4-1 2.49-.92 2.57-.85 2.65-.75 2.75-.66 2.83-.57 2.92-.47 3.01-.37 3.11-.26 2.1-.12 2.09-.05 2.08-.01 2.07.06 2.06.1zM369.27 403.7l-.22.01-.22.01-.22.02-.22.01-.22.03-.22.02-.21.03-.22.03-24.01 3.6-.1.02-.11.02-.1.03-.09.03-.1.03-.09.04-.09.05-.09.04-.09.05-.08.06-.08.05-.08.06-.08.07-.07.06-.07.07-.06.07-.07.08-.06.08-.05.08-.06.08-.04.08-.05.09-.04.08-.04.09-.04.09-.03.1-.02.09-.03.1-.02.09-.01.1-.01.1-.01.1v.2l.01.1.01.1.02.1.02.11.02.1.03.1.27.81.28.81.29.79.29.79.3.78.31.77.32.77.32.75.33.75.35.74.34.73.36.72.36.71.38.7.38.7.38.69.4.68.4.67.41.66.42.66.43.64.43.64.45.63.45.62.45.61.47.61.47.59.49.59.49.58.49.57.51.56.51.56.52.54.53.54.54.53.54.52.55.51.57.51.56.49.58.49.91.78.86.76.8.73.75.71.71.69.66.67.63.65.59.63.57.6.54.58.51.56.51.54.49.51.48.49.48.47.48.45.48.42.49.4.51.38.52.35.55.33.57.31.6.29.64.26.68.23.72.22.76.19.82.16.88.15.93.11 1 .1 1.07.07 1.14.04 1.22.02h1.29l1.39-.03 1.47-.05 1.57-.08 1.67-.1 1.77-.13 1.82-.15 1.83-.17 1.82-.18 1.82-.19 1.82-.21 1.82-.23 1.82-.24 1.81-.25 1.81-.26 1.8-.27 1.8-.28 1.78-.29 1.78-.3 1.77-.3 1.76-.31 1.75-.32 1.74-.32 1.73-.33 1.71-.33 1.7-.33 1.68-.33 1.67-.34 1.65-.33 1.63-.34 1.62-.33 1.59-.33 1.58-.33 1.56-.32 1.53-.32 1.51-.31 1.49-.31 1.47-.3 1.44-.3 1.41-.28 1.39-.28 1.36-.26 1.33-.26 1.3-.24 1.27-.23 1.25-.22.76-.15.66-.16.56-.19.45-.21.34-.22.24-.24.13-.26.03-.29-.08-.29-.18-.32-.29-.34-.4-.35-.5-.38-.6-.39-.71-.41-.82-.43-.92-.45-1.02-.47-1.14-.48-1.23-.51-1.34-.52-1.45-.54-1.56-.56-1.65-.58-1.77-.6-1.87-.62-1.97-.63-2.08-.66-2.19-.67-2.29-.69-2.39-.71-2.51-.73-2.6-.75-2.71-.77-2.82-.78-2.92-.8-3.03-.83-3.14-.84-3.24-.86-3.34-.88-29.04-13.1-.2-.08-.2-.09-.21-.08-.2-.08-.21-.08-.2-.08-.21-.07-.21-.07-.21-.06-.21-.06-.21-.06-.21-.06-.21-.05-.22-.05-.21-.05-.21-.04-.22-.04-.21-.04-.22-.03-.21-.04-.22-.02-.22-.03-.22-.02-.21-.02-.22-.02-.22-.01-.22-.01-.22-.01h-.65l-.22.01z"/>

</svg>
